<svg xmlns="http://www.w3.org/2000/svg" xmlns:xlink="http://www.w3.org/1999/xlink" viewBox="0 0 867.5 168"><defs><style>.cls-1{fill:#003778;}</style></defs><title>LANDING PAGE_AFIN CLIC_</title><g id="imagenes"><image width="5663" height="6288" transform="matrix(0.08, 0.01, -0.01, 0.08, 4.02, -574.18)" xlink:href="../../../../02%20FEB/APP%20STORE/MOCKS/Pantalla_girada_iOS_INICIO.png"/></g><g id="diseño"><path class="cls-1" d="M824,168H43.5A43.54,43.54,0,0,1,0,124.5v-81A43.54,43.54,0,0,1,43.5,0H824a43.54,43.54,0,0,1,43.5,43.5v81A43.54,43.54,0,0,1,824,168ZM43.5,1A42.55,42.55,0,0,0,1,43.5v81A42.55,42.55,0,0,0,43.5,167H824a42.55,42.55,0,0,0,42.5-42.5v-81A42.55,42.55,0,0,0,824,1Z"/></g></svg>