<svg xmlns="http://www.w3.org/2000/svg" viewBox="0 0 32 31"><defs><style>.cls-1{fill:#fff;}</style></defs><title>LANDING PAGE_AFIN CLIC_</title><g id="diseño"><path class="cls-1" d="M16,30.66a15,15,0,1,1,15-15A15,15,0,0,1,16,30.66Zm0-29.3A14.27,14.27,0,1,0,30.23,15.63,14.28,14.28,0,0,0,16,1.36Z"/><path class="cls-1" d="M8.16,20.53a9.11,9.11,0,0,0,14-8.09,6.44,6.44,0,0,0,1.6-1.65,6.58,6.58,0,0,1-1.84.5,3.23,3.23,0,0,0,1.41-1.77,6.84,6.84,0,0,1-2,.78,3.2,3.2,0,0,0-5.46,2.92A9.11,9.11,0,0,1,9.24,9.87a3.22,3.22,0,0,0,1,4.28,3.28,3.28,0,0,1-1.46-.4,3.21,3.21,0,0,0,2.57,3.18A3.16,3.16,0,0,1,9.91,17a3.21,3.21,0,0,0,3,2.23A6.46,6.46,0,0,1,8.16,20.53Z"/></g></svg>