<svg xmlns="http://www.w3.org/2000/svg" viewBox="0 0 32 31"><defs><style>.cls-1{fill:#fff;}</style></defs><title>LANDING PAGE_AFIN CLIC_</title><g id="diseño"><path class="cls-1" d="M16,30.66a15,15,0,1,1,15-15A15,15,0,0,1,16,30.66Zm0-29.3A14.27,14.27,0,1,0,30.23,15.63,14.28,14.28,0,0,0,16,1.36Z"/><path class="cls-1" d="M16,9c2.15,0,2.4,0,3.25.05a4.27,4.27,0,0,1,1.49.28,2.48,2.48,0,0,1,.93.6,2.57,2.57,0,0,1,.6.92,4.33,4.33,0,0,1,.27,1.49c0,.85.05,1.1.05,3.25s0,2.4-.05,3.24a4.41,4.41,0,0,1-.27,1.5,2.57,2.57,0,0,1-.6.92,2.61,2.61,0,0,1-.93.6,4.52,4.52,0,0,1-1.49.28c-.85,0-1.1,0-3.25,0s-2.4,0-3.24,0a4.46,4.46,0,0,1-1.49-.28,2.53,2.53,0,0,1-.93-.6,2.57,2.57,0,0,1-.6-.92,4.6,4.6,0,0,1-.28-1.5c0-.84,0-1.1,0-3.24s0-2.4,0-3.25a4.52,4.52,0,0,1,.28-1.49,2.57,2.57,0,0,1,.6-.92,2.41,2.41,0,0,1,.93-.6,4.21,4.21,0,0,1,1.49-.28c.84,0,1.1-.05,3.24-.05m0-1.45c-2.18,0-2.45,0-3.31,0a5.89,5.89,0,0,0-2,.38,3.94,3.94,0,0,0-1.42.92,4,4,0,0,0-.93,1.43,5.86,5.86,0,0,0-.37,2c0,.85-.05,1.13-.05,3.31s0,2.45.05,3.31a5.86,5.86,0,0,0,.37,1.95,3.89,3.89,0,0,0,.93,1.42,4,4,0,0,0,1.42.93,5.92,5.92,0,0,0,2,.37c.86,0,1.13.05,3.31.05s2.46,0,3.32-.05a5.92,5.92,0,0,0,1.95-.37,4.06,4.06,0,0,0,1.42-.93,3.89,3.89,0,0,0,.93-1.42A6.13,6.13,0,0,0,24,18.94c0-.86.05-1.13.05-3.31s0-2.46-.05-3.31a6.13,6.13,0,0,0-.37-2A4.08,4.08,0,0,0,21.23,8a5.89,5.89,0,0,0-1.95-.38c-.86,0-1.13,0-3.32,0"/><path class="cls-1" d="M16,11.5a4.13,4.13,0,1,0,4.13,4.13A4.13,4.13,0,0,0,16,11.5m0,6.81a2.68,2.68,0,1,1,2.68-2.68A2.67,2.67,0,0,1,16,18.31"/><path class="cls-1" d="M21.22,11.34a1,1,0,1,1-1-1,1,1,0,0,1,1,1"/></g></svg>